<svg width="50" height="50" viewBox="0 0 50 50" fill="none" xmlns="http://www.w3.org/2000/svg">
<g clip-path="url(#clip0_310_1277)">
<path fill-rule="evenodd" clip-rule="evenodd" d="M25 0.59082C15.823 0.59082 8.38086 8.03105 8.38086 17.21C8.38086 24.5525 13.1426 30.7822 19.7461 32.9795C20.5766 33.1334 20.8816 32.6189 20.8816 32.1799C20.8816 31.7838 20.866 30.4744 20.859 29.0861C16.2352 30.0912 15.2598 27.1252 15.2598 27.1252C14.5039 25.2041 13.4145 24.6932 13.4145 24.6932C11.9066 23.6619 13.5277 23.683 13.5277 23.683C15.1969 23.8002 16.0758 25.3959 16.0758 25.3959C17.5578 27.9365 19.9637 27.2018 20.9117 26.7772C21.0613 25.7029 21.4918 24.9693 21.9672 24.5545C18.2758 24.1346 14.3953 22.7092 14.3953 16.3412C14.3953 14.5268 15.0445 13.0443 16.1078 11.8803C15.9352 11.4615 15.3664 9.7709 16.2687 7.48184C16.2687 7.48184 17.6641 7.03574 20.8391 9.18613C22.1652 8.81777 23.5871 8.63301 24.9992 8.62676C26.4117 8.6334 27.8344 8.81817 29.1625 9.18613C32.3344 7.03613 33.7281 7.48223 33.7281 7.48223C34.6328 9.77129 34.0641 11.4615 33.8914 11.8807C34.957 13.0439 35.6016 14.5268 35.6016 16.3416C35.6016 22.7244 31.7137 24.1299 28.0129 24.5408C28.609 25.0564 29.1402 26.0682 29.1402 27.6189C29.1402 29.8424 29.1215 31.6318 29.1215 32.1791C29.1215 32.6205 29.4207 33.1393 30.2629 32.976C36.8629 30.776 41.6184 24.5486 41.6184 17.2084C41.6191 8.03145 34.1785 0.59082 25 0.59082Z" fill="#E7E7E7"/>
<path d="M14.6757 24.4515C14.6386 24.5343 14.5085 24.559 14.3906 24.5023C14.2695 24.4476 14.2023 24.3355 14.2413 24.2523C14.2765 24.1679 14.407 24.1441 14.5277 24.2008C14.6488 24.2554 14.7171 24.3687 14.6757 24.4515ZM15.3488 25.2031C15.2695 25.2761 15.1144 25.2422 15.0089 25.1258C14.9003 25.0097 14.88 24.8547 14.9605 24.7804C15.0417 24.707 15.1921 24.7414 15.3003 24.8574C15.4097 24.9746 15.4312 25.1281 15.3484 25.2027L15.3488 25.2031ZM16.0038 26.1593C15.9023 26.2304 15.7355 26.164 15.6328 26.016C15.5304 25.8687 15.5304 25.6918 15.6347 25.6203C15.7378 25.5492 15.9019 25.6133 16.0058 25.7597C16.1081 25.9101 16.1081 26.0875 16.0038 26.1593ZM16.9015 27.0843C16.8105 27.1847 16.6163 27.1578 16.4745 27.0207C16.3292 26.8867 16.289 26.6965 16.38 26.5961C16.4726 26.4957 16.6675 26.5238 16.8105 26.6597C16.955 26.7933 16.9988 26.9843 16.9015 27.0843ZM18.1406 27.6211C18.0999 27.7515 17.9132 27.8105 17.7249 27.7554C17.5367 27.6984 17.414 27.5461 17.4515 27.4148C17.4906 27.2836 17.6788 27.2222 17.8683 27.2812C18.0558 27.3375 18.1792 27.4883 18.1406 27.6211ZM19.4999 27.7207C19.505 27.8574 19.3453 27.9715 19.1476 27.9738C18.9492 27.9785 18.7882 27.8676 18.7859 27.7324C18.7859 27.5941 18.9421 27.4816 19.1406 27.4785C19.3382 27.4746 19.4999 27.5847 19.4999 27.7207ZM20.7656 27.5054C20.789 27.639 20.6523 27.7765 20.4558 27.8129C20.2628 27.8488 20.0847 27.766 20.0597 27.6332C20.0363 27.4965 20.1757 27.3597 20.3683 27.3238C20.5648 27.2894 20.7406 27.3695 20.7656 27.5054Z" fill="#E7E7E7"/>
<path d="M9.70903 42.3057H5.52935C5.47755 42.3057 5.42787 42.3262 5.39124 42.3629C5.35461 42.3995 5.33403 42.4492 5.33403 42.501V44.5447C5.33403 44.5965 5.35461 44.6462 5.39124 44.6828C5.42787 44.7195 5.47755 44.74 5.52935 44.74H7.15942V47.2791C7.15942 47.2791 6.79341 47.4041 5.78052 47.4041C4.58677 47.4041 2.91841 46.9682 2.91841 43.2994C2.91841 39.6303 4.65591 39.1471 6.28716 39.1471C7.69888 39.1471 8.30669 39.3955 8.69419 39.5154C8.81528 39.5521 8.92856 39.4311 8.92856 39.3232L9.39458 37.3486C9.39527 37.3191 9.38881 37.2898 9.37575 37.2633C9.36269 37.2367 9.34342 37.2138 9.31958 37.1963C9.16216 37.0838 8.20356 36.5479 5.7813 36.5479C2.99067 36.5479 0.128174 37.7346 0.128174 43.4424C0.128174 49.1494 3.40552 49.9998 6.16724 49.9998C8.45396 49.9998 9.84107 49.0225 9.84107 49.0225C9.8981 48.9912 9.90435 48.9111 9.90435 48.874V42.5006C9.90435 42.4488 9.88377 42.3991 9.84714 42.3625C9.81051 42.3259 9.76083 42.3057 9.70903 42.3057ZM31.0571 37.0354H28.7032C28.6775 37.0355 28.6521 37.0406 28.6284 37.0506C28.6047 37.0605 28.5832 37.075 28.5652 37.0932C28.5471 37.1115 28.5328 37.1331 28.5231 37.1569C28.5134 37.1807 28.5085 37.2062 28.5086 37.2318L28.5094 41.7803H24.8407V37.2318C24.8408 37.2062 24.8359 37.1808 24.8263 37.157C24.8166 37.1332 24.8023 37.1116 24.7843 37.0934C24.7663 37.0751 24.7448 37.0606 24.7212 37.0507C24.6975 37.0407 24.6722 37.0355 24.6465 37.0354H22.293C22.2673 37.0355 22.2419 37.0406 22.2182 37.0506C22.1946 37.0605 22.1731 37.075 22.155 37.0932C22.1369 37.1115 22.1226 37.1331 22.1129 37.1569C22.1032 37.1807 22.0983 37.2062 22.0985 37.2318V49.5482C22.0985 49.6564 22.186 49.7447 22.293 49.7447H24.6465C24.6722 49.7446 24.6976 49.7394 24.7213 49.7294C24.7449 49.7194 24.7664 49.7048 24.7844 49.6866C24.8025 49.6683 24.8167 49.6466 24.8264 49.6228C24.836 49.599 24.8409 49.5735 24.8407 49.5479V44.2799H28.5094L28.5032 49.5479C28.5032 49.6564 28.5907 49.7447 28.6985 49.7447H31.0571C31.0828 49.7446 31.1082 49.7394 31.1318 49.7294C31.1555 49.7194 31.1769 49.7048 31.195 49.6866C31.213 49.6683 31.2273 49.6466 31.2369 49.6228C31.2466 49.599 31.2514 49.5735 31.2512 49.5479V37.2314C31.2515 37.2058 31.2466 37.1803 31.237 37.1566C31.2274 37.1328 31.2131 37.1111 31.1951 37.0929C31.177 37.0747 31.1555 37.0602 31.1318 37.0503C31.1081 37.0404 31.0827 37.0354 31.0571 37.0354ZM12.6329 37.3154C11.7954 37.3154 11.1157 38.0002 11.1157 38.8479C11.1157 39.6943 11.7954 40.3811 12.6329 40.3811C13.4711 40.3811 14.1504 39.6943 14.1504 38.8479C14.1504 38.0002 13.4708 37.3154 12.6329 37.3154ZM13.7875 41.0686H11.4415C11.3336 41.0686 11.2375 41.1795 11.2375 41.2873V49.4326C11.2375 49.6721 11.3868 49.7432 11.5797 49.7432H13.693C13.9254 49.7432 13.9821 49.6291 13.9821 49.4287V41.265C13.9822 41.2394 13.9772 41.214 13.9675 41.1902C13.9578 41.1665 13.9435 41.1449 13.9254 41.1267C13.9074 41.1085 13.8859 41.094 13.8622 41.0841C13.8386 41.0742 13.8132 41.0687 13.7875 41.0686ZM40.1961 41.0869H37.8602C37.8346 41.0871 37.8092 41.0924 37.7856 41.1024C37.762 41.1124 37.7405 41.1269 37.7226 41.1452C37.7046 41.1635 37.6903 41.1852 37.6807 41.2089C37.6711 41.2327 37.6662 41.2581 37.6665 41.2838V47.3229C37.6665 47.3229 37.0727 47.7564 36.2309 47.7564C35.3891 47.7564 35.1657 47.3748 35.1657 46.5502V41.2838C35.1659 41.2581 35.161 41.2326 35.1514 41.2088C35.1417 41.185 35.1275 41.1634 35.1094 41.1451C35.0914 41.1268 35.0699 41.1122 35.0463 41.1023C35.0226 41.0923 34.9972 41.0871 34.9715 41.0869H32.6012C32.5755 41.087 32.5501 41.0922 32.5264 41.1022C32.5026 41.1121 32.4811 41.1267 32.4631 41.1449C32.445 41.1632 32.4307 41.1849 32.421 41.2087C32.4114 41.2326 32.4065 41.2581 32.4067 41.2838V46.9486C32.4067 49.3979 33.7719 49.9971 35.6497 49.9971C37.1903 49.9971 38.4325 49.1455 38.4325 49.1455C38.4325 49.1455 38.4911 49.5947 38.5184 49.6475C38.5458 49.7006 38.6149 49.7541 38.6903 49.7541L40.1981 49.7475C40.2239 49.7475 40.2494 49.7424 40.2732 49.7324C40.297 49.7225 40.3186 49.708 40.3368 49.6897C40.3549 49.6714 40.3693 49.6497 40.379 49.6258C40.3887 49.6019 40.3936 49.5764 40.3934 49.5506L40.3922 41.2826C40.392 41.2308 40.3714 41.1812 40.3349 41.1445C40.2983 41.1078 40.2487 41.0869 40.1969 41.0865L40.1961 41.0869ZM46.5797 40.8104C45.2532 40.8104 44.3508 41.4021 44.3508 41.4021V37.2314C44.351 37.2058 44.3461 37.1804 44.3364 37.1566C44.3267 37.1329 44.3125 37.1112 44.2945 37.093C44.2764 37.0748 44.255 37.0602 44.2313 37.0503C44.2077 37.0403 44.1823 37.0351 44.1567 37.035H41.7969C41.7712 37.035 41.7457 37.0401 41.7219 37.0499C41.6981 37.0598 41.6766 37.0743 41.6584 37.0926C41.6402 37.1108 41.6259 37.1325 41.6161 37.1563C41.6064 37.1802 41.6015 37.2057 41.6016 37.2314V49.5479C41.6015 49.5736 41.6064 49.5991 41.6161 49.623C41.6259 49.6468 41.6402 49.6685 41.6584 49.6867C41.6766 49.705 41.6981 49.7195 41.7219 49.7294C41.7457 49.7392 41.7712 49.7443 41.7969 49.7443H43.4344C43.5086 49.7443 43.5641 49.7064 43.6051 49.6397C43.6454 49.5732 43.7043 49.0717 43.7043 49.0717C43.7043 49.0717 44.6692 49.9857 46.4965 49.9857C48.6411 49.9857 49.8715 48.8982 49.8715 45.1021C49.8715 41.3061 47.9067 40.81 46.5793 40.81L46.5797 40.8104ZM45.6579 47.7494C44.8481 47.7248 44.2985 47.3572 44.2985 47.3572V43.4568C44.2985 43.4568 44.8407 43.1248 45.5055 43.0647C46.3465 42.9893 47.1571 43.2436 47.1571 45.2498C47.1571 47.3658 46.7918 47.7834 45.6583 47.749L45.6579 47.7494ZM20.7793 47.7033C20.6766 47.7033 20.4133 47.7451 20.1426 47.7451C19.2754 47.7451 18.9813 47.342 18.9813 46.8201V43.3568H20.7469C20.7727 43.3568 20.7982 43.3517 20.822 43.3418C20.8458 43.3319 20.8674 43.3174 20.8856 43.2991C20.9037 43.2808 20.9181 43.2591 20.9278 43.2352C20.9375 43.2113 20.9424 43.1857 20.9422 43.16V41.2631C20.9423 41.2374 20.9374 41.2119 20.9276 41.1881C20.9178 41.1643 20.9035 41.1427 20.8853 41.1245C20.8672 41.1063 20.8456 41.0918 20.8218 41.0819C20.7981 41.0721 20.7726 41.067 20.7469 41.067H18.9813L18.9786 38.735C18.9786 38.6463 18.9333 38.6021 18.8309 38.6021H16.4247C16.3317 38.6021 16.2813 38.6436 16.2813 38.733V41.1432C16.2813 41.1432 15.0754 41.4342 14.9942 41.4576C14.9536 41.4695 14.918 41.4941 14.8926 41.5279C14.8673 41.5617 14.8536 41.6029 14.8536 41.6451V43.1596C14.8534 43.1852 14.8583 43.2106 14.868 43.2344C14.8777 43.2582 14.8919 43.2798 14.9099 43.298C14.928 43.3163 14.9494 43.3308 14.9731 43.3407C14.9967 43.3507 15.0221 43.3559 15.0477 43.3561H16.2813V46.9998C16.2813 49.7068 18.1797 49.9725 19.461 49.9725C20.0458 49.9725 20.7461 49.785 20.8618 49.742C20.9321 49.7158 20.9723 49.6436 20.9723 49.565L20.9739 47.899C20.9731 47.8474 20.9523 47.7981 20.9158 47.7615C20.8794 47.7249 20.8302 47.7039 20.7786 47.7029L20.7793 47.7033Z" fill="white"/>
</g>
<defs>
<clipPath id="clip0_310_1277">
<rect width="50" height="50" fill="white"/>
</clipPath>
</defs>
</svg>
