<svg width="80" height="80" viewBox="0 0 80 80" fill="none" xmlns="http://www.w3.org/2000/svg">
<path d="M57 8H23C14.7157 8 8 14.7157 8 23V57C8 65.2843 14.7157 72 23 72H57C65.2843 72 72 65.2843 72 57V23C72 14.7157 65.2843 8 57 8Z" fill="url(#paint0_radial_114_336)"/>
<path d="M57 8H23C14.7157 8 8 14.7157 8 23V57C8 65.2843 14.7157 72 23 72H57C65.2843 72 72 65.2843 72 57V23C72 14.7157 65.2843 8 57 8Z" fill="url(#paint1_radial_114_336)"/>
<path d="M40.0023 15C33.2128 15 32.3605 15.0298 29.694 15.151C27.0325 15.273 25.2158 15.6943 23.6263 16.3125C21.9818 16.951 20.587 17.8052 19.1975 19.1953C17.8068 20.585 16.9525 21.9798 16.312 23.6235C15.692 25.2135 15.2702 27.031 15.1505 29.6913C15.0312 32.358 15 33.2105 15 40.0003C15 46.79 15.03 47.6395 15.151 50.306C15.2735 52.9675 15.6948 54.7843 16.3125 56.3738C16.9515 58.0183 17.8058 59.413 19.1958 60.8025C20.585 62.1933 21.9798 63.0495 23.623 63.688C25.2138 64.3063 27.0307 64.7275 29.6917 64.8495C32.3585 64.9708 33.21 65.0005 39.9993 65.0005C46.7895 65.0005 47.639 64.9708 50.3055 64.8495C52.967 64.7275 54.7857 64.3063 56.3765 63.688C58.0202 63.0495 59.413 62.1933 60.802 60.8025C62.1927 59.413 63.0468 58.0183 63.6875 56.3745C64.302 54.7843 64.724 52.967 64.849 50.3065C64.9687 47.64 65 46.79 65 40.0003C65 33.2105 64.9687 32.3585 64.849 29.6918C64.724 27.0303 64.302 25.2138 63.6875 23.6243C63.0468 21.9798 62.1927 20.585 60.802 19.1953C59.4115 17.8047 58.0208 16.9505 56.375 16.3128C54.7812 15.6942 52.9635 15.2728 50.302 15.151C47.6352 15.0298 46.7862 15 39.9945 15H40.0023ZM37.7595 19.5053C38.4253 19.5043 39.168 19.5053 40.0023 19.5053C46.6775 19.5053 47.4685 19.5293 50.1045 19.649C52.542 19.7605 53.865 20.1678 54.7463 20.51C55.913 20.963 56.7448 21.5048 57.6193 22.38C58.4943 23.255 59.0358 24.0883 59.49 25.255C59.8323 26.135 60.24 27.458 60.351 29.8955C60.4708 32.531 60.4967 33.3225 60.4967 39.9945C60.4967 46.6665 60.4708 47.4583 60.351 50.0935C60.2395 52.531 59.8323 53.854 59.49 54.7343C59.037 55.901 58.4943 56.7318 57.6193 57.6063C56.7443 58.4813 55.9135 59.0228 54.7463 59.476C53.866 59.8198 52.542 60.226 50.1045 60.3375C47.469 60.4573 46.6775 60.4833 40.0023 60.4833C33.3268 60.4833 32.5355 60.4573 29.9002 60.3375C27.4627 60.225 26.1397 59.8178 25.2577 59.4755C24.0912 59.0223 23.2577 58.4808 22.3827 57.6058C21.5077 56.7308 20.9663 55.8995 20.512 54.7323C20.1698 53.852 19.762 52.529 19.651 50.0915C19.5313 47.456 19.5072 46.6645 19.5072 39.9883C19.5072 33.312 19.5313 32.5248 19.651 29.8893C19.7625 27.4518 20.1698 26.1288 20.512 25.2475C20.9653 24.0808 21.5078 23.2475 22.383 22.3725C23.2583 21.4975 24.0912 20.9558 25.258 20.5018C26.1392 20.158 27.4627 19.7518 29.9002 19.6398C32.2065 19.5355 33.1003 19.5043 37.7595 19.499V19.5053ZM53.3473 23.6563C51.691 23.6563 50.3473 24.9988 50.3473 26.6553C50.3473 28.3115 51.691 29.6553 53.3473 29.6553C55.0035 29.6553 56.3473 28.3115 56.3473 26.6553C56.3473 24.999 55.0035 23.6553 53.3473 23.6553V23.6563ZM40.0023 27.1615C32.9123 27.1615 27.1637 32.91 27.1637 40.0003C27.1637 47.0905 32.9123 52.8363 40.0023 52.8363C47.0925 52.8363 52.839 47.0905 52.839 40.0003C52.839 32.9103 47.092 27.1615 40.0018 27.1615H40.0023ZM40.0023 31.6668C44.6045 31.6668 48.3358 35.3975 48.3358 40.0003C48.3358 44.6025 44.6045 48.3338 40.0023 48.3338C35.4 48.3338 31.669 44.6025 31.669 40.0003C31.669 35.3975 35.3998 31.6668 40.0023 31.6668Z" fill="white"/>
<defs>
<radialGradient id="paint0_radial_114_336" cx="0" cy="0" r="1" gradientUnits="userSpaceOnUse" gradientTransform="translate(25 76.9292) rotate(-90) scale(63.4288 58.9938)">
<stop stop-color="#FFDD55"/>
<stop offset="0.1" stop-color="#FFDD55"/>
<stop offset="0.5" stop-color="#FF543E"/>
<stop offset="1" stop-color="#C837AB"/>
</radialGradient>
<radialGradient id="paint1_radial_114_336" cx="0" cy="0" r="1" gradientUnits="userSpaceOnUse" gradientTransform="translate(-2.72025 12.6102) rotate(78.681) scale(28.353 116.872)">
<stop stop-color="#3771C8"/>
<stop offset="0.128" stop-color="#3771C8"/>
<stop offset="1" stop-color="#6600FF" stop-opacity="0"/>
</radialGradient>
</defs>
</svg>
